<?xml version="1.0" encoding="UTF-8" standalone="no"?>
<svg width="780" height="500" viewBox="0 0 780 500" fill="none" xmlns="http://www.w3.org/2000/svg">
  <rect x="25" y="104.1" width="730" height="291.8" rx="20" fill="#006FCF"/>
  <path d="M255.333 270.933H218.667V328.267H152.667V171.733H255.333L282.667 218.267L310 171.733H627.333V328.267H559.333V297.6H526.667V328.267H434.667L407.333 281.733L380 328.267H255.333V270.933ZM266.667 198.4H185.333V234.4H262L266.667 198.4ZM266.667 256.4H185.333V288.4H262L266.667 256.4ZM427.333 198.4H354.667L329.333 241.733L354 285.733H426.667L452 241.733L427.333 198.4ZM394.667 255.733H386L386.667 248.4H394.667V255.733ZM398 231.733H386.667V226.733H396.667L398 231.733ZM593.333 198.4H526.667V234.4H593.333V198.4ZM593.333 256.4H526.667V288.4H593.333V256.4Z" fill="white"/>
</svg> 