<?xml version="1.0" encoding="UTF-8" standalone="no"?>
<svg width="780" height="500" viewBox="0 0 780 500" fill="none" xmlns="http://www.w3.org/2000/svg">
  <path d="M461.9 250.001C461.9 330.952 396.951 395.901 316 395.901C235.049 395.901 170.1 330.952 170.1 250.001C170.1 169.05 235.049 104.101 316 104.101C396.951 104.101 461.9 169.05 461.9 250.001Z" fill="#F9A51A"/>
  <path d="M609.9 250.001C609.9 330.952 544.951 395.901 464 395.901C383.049 395.901 318.1 330.952 318.1 250.001C318.1 169.05 383.049 104.101 464 104.101C544.951 104.101 609.9 169.05 609.9 250.001Z" fill="#EB001B"/>
  <path d="M390 152.401C428.2 183.301 452.7 214.401 464.4 250.001C452.7 285.601 428.2 316.701 390 347.601C351.8 316.701 327.3 285.601 315.6 250.001C327.3 214.401 351.8 183.301 390 152.401Z" fill="#FF5F00"/>
</svg>