<svg xmlns="http://www.w3.org/2000/svg" viewBox="0 0 152 34">
  <g fill-rule="evenodd">
    <path fill="#6772E5" d="M53.2 10.95c0-1.55-1.18-2.15-3.08-2.15H47v7.7h1.68v-2.6h1.2l1.73 2.6h2.03l-2-2.85c.8-.4 1.57-1.12 1.57-2.7zm-3.37 1.5h-1.15v-2.2h1.15c.7 0 1.45.28 1.45 1.1 0 .84-.75 1.1-1.45 1.1zm9.34-3.65H55.8v7.7h3.37c2.35 0 4.23-1.7 4.23-3.85 0-2.17-1.88-3.85-4.23-3.85zm0 6.26h-1.7V10.3h1.7c1.35 0 2.5 1.04 2.5 2.38 0 1.34-1.15 2.38-2.5 2.38zm9.4-6.26h-3.1v7.7h3.1c2.35 0 4.23-1.7 4.23-3.85 0-2.17-1.88-3.85-4.23-3.85zm0 6.26h-1.42V10.3h1.42c1.35 0 2.5 1.04 2.5 2.38 0 1.34-1.15 2.38-2.5 2.38zm8.93-2.22v-4.04h-1.68v7.7h1.68v-2.28h3v2.28h1.66v-7.7h-1.66v4.04h-3zm11.83-4.04h-1.67v7.7h5.1v-1.45h-3.43v-6.26zm8.18 3.82c1.22-.44 1.55-1.07 1.55-2.22 0-1.35-.97-1.6-2.1-1.6h-3.46v7.7h3.96c1.15 0 2.23-.38 2.23-1.78 0-1.14-.6-1.85-2.18-2.1zm-2.33-2.44h1.58c.38 0 .63.17.63.5 0 .32-.25.53-.63.53h-1.58v-1.03zm1.9 4.9h-1.9v-1.15h1.9c.45 0 .74.22.74.6 0 .37-.3.54-.74.54zm10.9-6.28h-1.67v7.7h5.1v-1.45h-3.43v-6.26zm11.58 0h-3.37v7.7h1.67v-3.05h1.72c1.9 0 3.08-.6 3.08-2.32 0-1.72-1.18-2.33-3.08-2.33zm-.24 3.27h-1.46v-1.88h1.45c.75 0 1.47.26 1.47 1 0 .75-.75 1-1.47 1H117zm6.9-3.27h-1.95l3.15 7.7h1.22l3.13-7.7h-1.9l-1.78 4.77-1.87-4.76zm14.52 3.85c0-2.2-1.8-3.85-4.05-3.85h-3.04v7.7h3.03c2.25 0 4.05-1.66 4.05-3.85zm-1.73 0c0 1.37-1.1 2.4-2.32 2.4h-1.36v-4.8h1.35c1.22 0 2.33 1.03 2.33 2.4zm4.9-3.85h1.68v7.7H142v-7.7zm9.94 0h-1.67v7.7h5.1v-1.45h-3.43v-6.26z"/>
    <path fill="#6772E5" d="M22.88 11.37l-2.1-.33c-1.14-.17-1.6-.57-1.6-1.12 0-.63.6-1 1.54-1 1.04 0 1.68.4 1.82 1.1h1.6c-.13-1.34-1.33-2.34-3.36-2.34-1.98 0-3.3 1-3.3 2.47 0 1.33.93 2.14 2.67 2.37l2.1.33c1.17.18 1.53.56 1.53 1.12 0 .63-.66 1.03-1.7 1.03-1.33 0-1.92-.46-2.02-1.2h-1.67c.1 1.43 1.34 2.5 3.7 2.5 2.03 0 3.44-1 3.44-2.5-.03-1.33-.96-2.12-2.7-2.35zM30 7h-1.64v7.7H30V7zm-3.83 2.85v-1.6h-2.4v1.6h2.4zm-2.4 4.85h2.4v-1.6h-2.4v1.6zM35.92 7h-1.63v1.4h-1.95v1.44h1.95v3.05c0 1.2.8 1.9 2.3 1.9.4 0 .7-.06 1.05-.12v-1.43c-.08.03-.17.03-.3.03-.55 0-.83-.28-.83-.87V9.84h1.13V8.4h-1.14V7h-.58z"/>
    <path fill="#5469D4" d="M38.67 7L36.1 14.7h1.7l.54-1.65h3.25l.52 1.64h1.75L41.3 7h-2.63zm1.72 1.68l1.17 3.62h-2.34l1.17-3.62z"/>
    <rect width="28" height="20" fill="#6772E5" fill-rule="nonzero" rx="2"/>
    <path fill="#FFF" d="M12.85 5.26c-2 0-3.62 1.18-3.62 2.8 0 2.9 5.4 1.2 5.4 3.32 0 .69-.7 1.14-1.83 1.14-1.6 0-2.48-.72-2.57-1.8H8.36c.12 1.73 1.73 3.07 4.14 3.07 2.1 0 3.74-1.25 3.74-2.8 0-3.08-5.43-1.27-5.43-3.41 0-.6.58-.97 1.66-.97 1.28 0 2.08.54 2.2 1.8h1.9c-.1-1.73-1.64-3.14-4.1-3.14H12.86z"/>
  </g>
</svg>
