<?xml version="1.0" encoding="UTF-8" standalone="no"?>
<svg width="780" height="500" viewBox="0 0 780 500" fill="none" xmlns="http://www.w3.org/2000/svg">
  <path d="M293.199 348.73L319.413 151.636H366.353L340.147 348.73H293.199Z" fill="#00579F"/>
  <path d="M544.504 155.333C534.525 151.259 518.809 146.808 499.765 146.808C439.116 146.808 395.959 179.031 395.572 224.578C395.209 257.157 426.359 275.248 449.472 286.27C473.173 297.542 480.704 304.763 480.704 314.645C480.533 329.985 461.845 336.846 444.45 336.846C419.913 336.846 406.465 332.772 385.6 322.76L377.325 318.689L368.67 360.373C380.576 366.492 403.45 371.69 427.151 371.945C491.115 371.945 533.42 340.102 533.803 291.59C533.975 265.906 520.524 246.38 486.1 229.675C465.227 218.787 453.307 211.441 453.307 200.295C453.665 189.903 465.227 179.157 490.733 179.157C511.593 179.157 526.336 183.595 537.48 188.434L543.267 191.248L551.897 151.13L544.504 155.333Z" fill="#00579F"/>
  <path d="M631.16 278.064C635.788 266.027 654.493 209.255 654.493 209.255C654.134 209.635 658.764 196.356 661.495 188.063L665.403 206.059C665.403 206.059 677.308 267.546 679.305 278.064C670.444 278.064 642.215 278.064 631.16 278.064ZM695.76 151.636H660.045C645.675 151.636 635.072 155.328 628.788 171.67L536.788 348.73H593.14C593.14 348.73 603.28 320.983 605.265 315.659C612.058 315.659 665.761 315.659 674.629 315.659C676.205 322.623 681.66 348.73 681.66 348.73H731.999L695.76 151.636Z" fill="#00579F"/>
  <path d="M243.636 151.636L190.33 285.25L184.565 255.516C173.897 221.979 145.291 186.29 113.393 168.451L162.999 348.348H219.721L303.527 151.636H243.636Z" fill="#00579F"/>
  <path d="M113.023 151.636H25.795L25 156.084C91.768 171.671 136.809 210.402 156.508 255.516L137.456 171.671C134.007 156.466 124.772 152.521 113.023 151.636Z" fill="#FAA61A"/>
</svg>